HIERARCHY
ROOT hip
{
	OFFSET 0.000000 0.000000 0.000000 
	CHANNELS 6 Xposition Yposition Zposition Xrotation Zrotation Yrotation
	JOINT abdomen
	{
		OFFSET 0.000000 3.402643 0.000000 
		CHANNELS 3 Xrotation Zrotation Yrotation
		JOINT chest
		{
			OFFSET 0.000000 8.438565 -0.680529 
			CHANNELS 3 Xrotation Zrotation Yrotation
			JOINT neck
			{
				OFFSET 0.000000 10.207942 -0.272212 
				CHANNELS 3 Xrotation Zrotation Yrotation
				JOINT head
				{
					OFFSET 0.000000 3.130431 0.000000 
					CHANNELS 3 Xrotation Zrotation Yrotation
					End Site
					{
						OFFSET 0.000000 3.130435 0.000000 
					}
				}
			}
			JOINT lCollar
			{
				OFFSET 3.470700 6.669187 -0.816635 
				CHANNELS 3 Yrotation Zrotation Xrotation
				JOINT lShldr
				{
					OFFSET 3.198488 0.000000 0.000000 
					CHANNELS 3 Zrotation Yrotation Xrotation
					JOINT lForeArm
					{
						OFFSET 10.139888 0.000000 0.000000 
						CHANNELS 3 Yrotation Zrotation Xrotation
						JOINT lHand
						{
							OFFSET 8.370511 0.000000 0.000000 
							CHANNELS 3 Zrotation Yrotation Xrotation
							End Site
							{
								OFFSET 4.083176 0.000000 0.000000 
							}
						}
					}
				}
			}
			JOINT rCollar
			{
				OFFSET -3.470700 6.669187 -0.816635 
				CHANNELS 3 Yrotation Zrotation Xrotation
				JOINT rShldr
				{
					OFFSET -3.198488 0.000000 0.000000 
					CHANNELS 3 Zrotation Yrotation Xrotation
					JOINT rForeArm
					{
						OFFSET -10.139888 0.000000 0.000000 
						CHANNELS 3 Yrotation Zrotation Xrotation
						JOINT rHand
						{
							OFFSET -8.370511 0.000000 0.000000 
							CHANNELS 3 Zrotation Yrotation Xrotation
							End Site
							{
								OFFSET -4.083176 0.000000 0.000000 
							}
						}
					}
				}
			}
		}
	}
	JOINT lThigh
	{
		OFFSET 5.308129 -1.633274 1.361059 
		CHANNELS 3 Xrotation Zrotation Yrotation
		JOINT lShin
		{
			OFFSET -2.041588 -20.007561 0.000000 
			CHANNELS 3 Xrotation Zrotation Yrotation
			JOINT lFoot
			{
				OFFSET 0.000000 -19.190928 -1.224953 
				CHANNELS 3 Xrotation Yrotation Zrotation
				End Site
				{
					OFFSET 0.000000 -2.449906 4.627600 
				}
			}
		}
	}
	JOINT rThigh
	{
		OFFSET -5.308129 -1.633274 1.361059 
		CHANNELS 3 Xrotation Zrotation Yrotation
		JOINT rShin
		{
			OFFSET 2.041588 -20.007561 0.000000 
			CHANNELS 3 Xrotation Zrotation Yrotation
			JOINT rFoot
			{
				OFFSET 0.000000 -19.190928 -1.224953 
				CHANNELS 3 Xrotation Yrotation Zrotation
				End Site
				{
					OFFSET 0.000000 -2.449906 4.627600 
				}
			}
		}
	}
}
MOTION
Frames: 8
Frame Time: 0.033333
0.349828 46.530777 -7.444244 -5.044721 -0.195258 -17.802860 0.000000 0.000000 0.000000 11.932485 -1.460819 4.249402 14.407587 0.116458 6.396511 8.692300 -2.836415 3.529281 0.721549 -2.096035 11.404106 -69.997589 4.572473 -6.567909 -47.671181 -1.447852 18.778553 -3.344776 -9.342958 -2.943552 5.086043 7.058006 11.480676 53.513771 -9.027209 5.677831 46.781208 3.966560 12.593744 -15.954417 3.314977 -4.349108 -20.592600 15.671083 5.370424 35.549377 -0.260915 4.606726 -6.655111 0.816448 -13.277678 5.076378 -24.314554 -15.469420 30.533350 3.277309 12.574010 -26.441849 -3.215668 13.661826 
0.365546 46.534584 -7.322346 -4.937032 -0.288332 -17.744398 0.000000 0.000000 0.000000 11.922580 -1.490184 4.171302 14.427905 0.126196 6.259794 8.298338 -3.128528 3.618548 0.693012 -2.201411 11.404922 -69.941879 4.636819 -6.636494 -47.633671 -1.412349 18.948334 -3.268323 -9.318919 -2.947901 5.127005 7.014211 11.458396 53.693653 -8.924669 5.731043 46.729561 3.989236 12.741806 -16.065573 3.219062 -4.341290 -20.599306 15.726909 5.372220 35.703259 -0.206232 4.548242 -6.899406 0.854926 -13.387186 5.360266 -24.139696 -15.501505 30.145975 3.268045 12.408868 -26.366940 -3.232553 13.820798 
0.408394 46.543018 -7.211381 -4.709024 -0.269862 -17.656462 0.000000 0.000000 0.000000 11.860780 -1.548700 4.132251 14.324051 -0.019416 6.230469 8.186124 -2.943540 3.559018 0.723852 -2.364766 11.357706 -69.747108 4.497315 -6.576301 -47.591240 -1.502812 18.602940 -3.072776 -9.298568 -2.970498 5.129694 7.070075 11.420777 53.602322 -8.846541 5.841120 46.854427 4.009574 12.657829 -15.726656 2.979445 -4.289166 -20.818113 15.632869 5.271311 35.905972 -0.163786 4.737304 -7.089571 0.839005 -13.390728 5.524966 -24.107126 -15.592892 29.683483 3.306624 12.309486 -26.254774 -3.265633 13.967611 
0.435303 46.552605 -7.077063 -4.619068 -0.400249 -17.607933 0.000000 0.000000 0.000000 11.934821 -1.567985 4.229869 14.350128 -0.048535 6.279294 8.132141 -2.934039 3.480997 0.766786 -2.315949 11.425513 -69.765167 4.391394 -6.521625 -47.526428 -1.509554 18.580254 -3.099290 -9.329812 -2.973538 5.209946 6.984456 11.485782 53.908161 -8.871704 5.716912 46.844929 3.965118 12.839828 -15.751616 2.762149 -4.260856 -20.894520 15.641116 5.196002 36.151997 -0.059832 4.797131 -7.345549 0.920056 -13.385235 5.906758 -23.806778 -15.502729 29.098721 3.218640 12.054538 -26.153297 -3.300569 14.193582 
0.487460 46.568840 -6.933144 -4.402997 -0.465380 -17.617857 0.000000 0.000000 0.000000 11.926078 -1.655467 4.308226 14.402350 -0.106781 6.259773 7.872672 -3.051105 3.451730 0.923386 -2.503657 11.407413 -69.561333 4.293550 -6.489175 -47.543434 -1.516950 18.668428 -3.142914 -9.253975 -2.972186 5.337993 6.949341 11.472536 53.967236 -8.782842 5.772585 46.770840 3.995263 12.691015 -15.811519 2.776554 -4.269398 -21.020407 15.679296 5.240761 36.356804 -0.085054 4.780430 -7.607481 0.925091 -13.296412 6.169942 -23.697510 -15.498285 28.456347 3.184546 11.925536 -25.946074 -3.343686 14.401437 
0.553684 46.584690 -6.769114 -4.268053 -0.642015 -17.676935 0.000000 0.000000 0.000000 12.007519 -1.713740 4.376836 14.451033 -0.106765 6.337898 7.695466 -3.138475 3.559508 1.039845 -2.519309 11.485610 -69.638176 4.033911 -6.629198 -47.582802 -1.476329 18.615808 -3.068101 -9.357491 -2.976452 5.441363 7.039301 11.549438 53.730057 -8.492550 5.943714 46.763897 4.068846 12.628464 -16.172100 2.590904 -4.271955 -21.051182 15.836808 5.337049 36.716927 -0.105394 4.739202 -8.034750 0.942317 -13.197192 6.666306 -23.480383 -15.573557 27.624683 3.218596 11.993738 -25.744541 -3.339237 14.536428 
0.627137 46.597794 -6.622828 -4.072014 -0.855740 -17.736561 0.000000 0.000000 0.000000 12.097379 -1.771906 4.484502 14.527952 -0.029111 6.464843 7.657468 -3.216209 3.628290 1.112566 -2.413804 11.582058 -69.707664 3.971059 -6.654963 -47.763245 -1.457578 18.550289 -2.913630 -9.309907 -2.994563 5.544751 7.022304 11.644791 53.815155 -8.253665 5.921929 46.874496 4.035249 12.748102 -16.119097 2.233033 -4.217064 -21.207260 16.012369 5.401713 37.076874 -0.089747 4.699156 -8.385777 0.982462 -13.073351 7.019346 -23.229811 -15.560464 26.863586 3.277193 11.916353 -25.466745 -3.320609 14.725945 
0.720118 46.615055 -6.463545 -3.721833 -0.976977 -17.678455 0.000000 0.000000 0.000000 12.049508 -1.811159 4.357610 14.495399 -0.145572 6.396489 7.673648 -3.332796 3.726892 1.071337 -2.562180 11.544517 -69.627876 4.024116 -6.820278 -47.843716 -1.386649 18.617657 -3.569246 -9.217727 -2.916797 5.536133 6.696777 11.599733 54.056423 -7.841220 6.008370 46.853504 4.040523 12.752699 -16.253143 2.182806 -4.220936 -21.561899 15.985845 5.272203 37.396648 -0.027138 4.889927 -8.691272 0.984872 -13.029571 7.362427 -23.066093 -15.716352 25.963112 3.374999 11.730194 -25.107349 -3.347208 14.962436 
